HIERARCHY
ROOT root     
{
	OFFSET 0.0000 0.0000 0.0000
	CHANNELS 6 Xposition Yposition Zposition Zrotation Yrotation Xrotation
	JOINT pelvis   
	{
		OFFSET 0.0000 0.0000 0.0000
		CHANNELS 3 Zrotation Yrotation Xrotation
		JOINT thorax   
		{
			OFFSET 0.0000 23.0750 -5.0000
			CHANNELS 3 Zrotation Yrotation Xrotation
			JOINT rclavicle
			{
				OFFSET 0.0000 28.0009 0.0000
				CHANNELS 3 Zrotation Yrotation Xrotation
				JOINT rhumerus 
				{
					OFFSET -18.5725 5.5939 0.0000
					CHANNELS 3 Zrotation Yrotation Xrotation
					JOINT rradius  
					{
						OFFSET -24.8459 0.0000 0.0000
						CHANNELS 3 Zrotation Yrotation Xrotation
						JOINT rhand    
						{
							OFFSET -24.5477 0.0000 0.0000
							CHANNELS 3 Zrotation Yrotation Xrotation
							End Site
							{
								OFFSET -8.1826 0.0000 0.0000
							}
						}
					}
				}
			}
			JOINT lclavicle
			{
				OFFSET 0.0000 28.0009 0.0000
				CHANNELS 3 Zrotation Yrotation Xrotation
				JOINT lhumerus 
				{
					OFFSET 18.5725 5.5939 0.0000
					CHANNELS 3 Zrotation Yrotation Xrotation
					JOINT lradius  
					{
						OFFSET 24.8459 0.0000 0.0000
						CHANNELS 3 Zrotation Yrotation Xrotation
						JOINT lhand    
						{
							OFFSET 24.5477 0.0000 0.0000
							CHANNELS 3 Zrotation Yrotation Xrotation
							End Site
							{
								OFFSET 8.1826 0.0000 0.0000
							}
						}
					}
				}
			}
			JOINT head     
			{
				OFFSET 0.0000 35.2030 0.0000
				CHANNELS 3 Zrotation Yrotation Xrotation
				End Site
				{
					OFFSET 0.0000 11.7343 0.0000
				}
			}
		}
		JOINT rfemur   
		{
			OFFSET -8.2817 0.0000 0.0000
			CHANNELS 3 Zrotation Yrotation Xrotation
			JOINT rtibia   
			{
				OFFSET 0.0000 -43.3627 0.0000
				CHANNELS 3 Zrotation Yrotation Xrotation
				JOINT rfoot    
				{
					OFFSET 0.0000 -38.2947 0.0000
					CHANNELS 3 Zrotation Yrotation Xrotation
					JOINT rtoes    
					{
						OFFSET 0.0000 0.0000 16.6054
						CHANNELS 3 Zrotation Yrotation Xrotation
						End Site
						{
							OFFSET 0.0000 0.0000 5.5351
						}
					}
				}
			}
		}
		JOINT lfemur   
		{
			OFFSET 8.2817 0.0000 0.0000
			CHANNELS 3 Zrotation Yrotation Xrotation
			JOINT ltibia   
			{
				OFFSET 0.0000 -43.3627 0.0000
				CHANNELS 3 Zrotation Yrotation Xrotation
				JOINT lfoot    
				{
					OFFSET 0.0000 -38.2947 0.0000
					CHANNELS 3 Zrotation Yrotation Xrotation
					JOINT ltoes    
					{
						OFFSET 0.0000 0.0000 16.6054
						CHANNELS 3 Zrotation Yrotation Xrotation
						End Site
						{
							OFFSET 0.0000 0.0000 5.5351
						}
					}
				}
			}
		}
	}
}
MOTION
Frames: 21
Frame Time: .0333333
116.29 87.53 16.609 -136.597 -85.7437 158.973 0 -0 0 2.57116 -10.6473 -12.2661 27.4163 -10.8135 -2.36981e-05 42.5009 0.439401 -5.68341 -0 57.8986 -0 -1.6044 5.72519 -0.0802008 -25.1989 11.5332 -4.00038e-05 -40.3194 -9.78363 8.64723 -1.12932e-06 -78.0112 9.14698e-07 12.7277 -3.35455 -0.374202 13.2483 8.81891 -1.75509 1.6779 -3.89579 -37.9367 -0 -0 28.144 -4.65343e-07 -10.8066 -1.13129 0.215897 -2.29538e-07 -48.8871 2.89614 7.41378 -5.18304 -0 -0 14.3488 -2.20384e-05 4.03498 12.5045 0.875015 -6.54157e-06 -68.2091 
115.24 87.48 16.416 -134.234 -85.6685 156.792 0 -0 0 3.26459 -10.9138 -12.3462 27.2832 -10.8594 2.43396e-06 42.3361 0.391867 -6.70682 -0 57.2928 -0 -1.62392 5.49266 -0.0779005 -25.0886 11.4913 3.12669e-05 -40.1399 -9.69035 8.62414 1.00055e-06 -78.9407 -1.215e-06 12.6595 -3.33951 -0.370503 12.8712 8.96955 -1.92138 1.9335 -3.42307 -38.2621 -0 -0 25.7426 -2.34608e-07 -10.1635 -1.2341 0.221197 5.11113e-07 -50.6948 3.24971 7.5234 -4.8144 -0 -0 14.4553 -7.35268e-07 3.82453 13.3534 0.884493 -1.43503e-06 -69.603 
114.16 87.401 16.224 -132.233 -85.6268 154.901 0 -0 0 3.89818 -11.1972 -12.3614 27.1552 -10.8956 -3.74829e-06 42.1945 0.383314 -7.75572 -5.20989e-07 56.6468 -9.66627e-07 -1.66381 5.26782 -0.0765005 -24.9594 11.4312 2.12987e-05 -39.9764 -9.5185 8.58174 0 -79.8696 0 12.5678 -3.29605 -0.363002 12.4556 9.10904 -2.11908 2.16129 -3.01037 -38.4368 -0 -0 23.3919 9.09135e-07 -9.42831 -1.10341 0.183199 -4.3295e-07 -52.6688 3.56768 7.64256 -4.36208 -0 -0 14.5764 4.99313e-06 3.63215 14.1806 0.8909 5.22767e-07 -70.951 
113.03 87.293 16.033 -130.639 -85.6024 153.335 0 -0 0 4.46285 -11.4932 -12.3096 27.0338 -10.9341 6.61672e-05 42.0726 0.429843 -8.81489 -5.06005e-07 55.9611 -9.52444e-07 -1.73996 5.05373 -0.0767991 -24.8202 11.3692 -8.89385e-06 -39.8221 -9.30181 8.53681 6.79317e-07 -80.7747 -1.26438e-06 12.4564 -3.21911 -0.351391 12.0132 9.23139 -2.34766 2.35838 -2.65787 -38.4822 -0 -0 21.2113 -3.72078e-07 -8.62944 -0.741084 0.112498 1.64565e-07 -54.6922 3.84778 7.76751 -3.82116 -0 -0 14.7186 -2.76694e-06 3.47013 14.9668 0.897188 -4.72736e-06 -72.2789 
111.87 87.155 15.848 -129.624 -85.6278 152.285 0 -0 0 4.93715 -11.7964 -12.2089 26.9271 -10.96 6.51556e-05 41.9694 0.502075 -9.89603 -0 55.2486 -0 -1.85345 4.85123 -0.078503 -24.665 11.2878 -1.20182e-05 -39.6755 -9.01575 8.48509 7.82527e-07 -81.662 -1.36723e-06 12.325 -3.10885 -0.335709 11.5599 9.32729 -2.59547 2.51227 -2.37685 -38.4503 -0 -0 19.3456 -5.44612e-07 -7.78688 -0.180096 0.0245997 4.83382e-07 -56.7325 4.07093 7.87057 -3.20501 -0 -0 14.8803 -1.02911e-06 3.36827 15.7059 0.912804 1.19198e-06 -73.6107 
110.69 86.987 15.666 -129.125 -85.671 151.688 0 -0 0 5.33445 -12.0938 -12.0683 26.8361 -10.9812 -7.44228e-05 41.8721 0.609536 -10.9851 -0 54.5126 -0 -2.01813 4.66216 -0.082198 -24.5115 11.2034 3.88378e-05 -39.5242 -8.69432 8.44206 1.52707e-06 -82.5077 -1.74098e-06 12.1739 -2.96588 -0.316311 11.0994 9.39169 -2.85696 2.62825 -2.15319 -38.3773 -0 -0 17.9134 2.30871e-07 -6.93435 0.5198 -0.0632009 6.91262e-07 -58.6741 4.2481 7.95078 -2.52744 -0 -0 15.0792 2.5438e-06 3.32813 16.3876 0.939984 -3.3447e-06 -74.977 
109.47 86.793 15.49 -129.187 -85.7414 151.614 0 -0 0 5.66143 -12.372 -11.9167 26.7625 -10.9836 3.16636e-05 41.778 0.725345 -12.0912 -0 53.7633 -0 -2.23469 4.48791 -0.0876004 -24.3667 11.1041 -1.99143e-05 -39.3675 -8.32158 8.40723 0 -83.3078 0 12.0006 -2.79707 -0.294085 10.6384 9.41785 -3.11587 2.70096 -1.97246 -38.3184 -0 -0 17.0139 6.88536e-07 -6.10679 1.29708 -0.138797 1.33763e-06 -60.5555 4.37866 7.99173 -1.82215 -0 -0 15.3286 2.60435e-06 3.35735 17.0145 0.983415 -7.29582e-06 -76.3902 
108.25 86.576 15.317 -129.756 -85.8237 152.029 0 -0 0 5.93662 -12.622 -11.7797 26.713 -10.9777 4.9817e-05 41.6682 0.860414 -13.1898 -0 53.0017 -0 -2.51981 4.32859 -0.0951956 -24.2494 11.0134 5.90014e-06 -39.1883 -7.93505 8.39956 1.21296e-06 -84.0432 -1.79694e-06 11.8089 -2.60773 -0.269699 10.1773 9.40248 -3.35893 2.7257 -1.80655 -38.3122 -0 -0 16.7059 -1.7681e-06 -5.34381 2.07074 -0.193599 7.13676e-07 -62.1259 4.47116 7.98255 -1.12568 -0 -0 15.6524 4.70026e-06 3.45007 17.5923 1.0439 3.05215e-06 -77.8367 
107 86.337 15.143 -130.73 -85.8879 152.803 0 -0 0 6.18322 -12.8243 -11.6211 26.6763 -10.9367 4.3737e-05 41.5568 0.990027 -14.3212 -0 52.2358 -0 -2.85203 4.18898 -0.104301 -24.1612 10.902 -1.7401e-05 -39.0059 -7.50565 8.39967 -2.96638e-06 -84.7157 2.70469e-06 11.5909 -2.41745 -0.245402 9.70586 9.34438 -3.58103 2.7182 -1.6356 -38.332 -0 -0 17.0047 -2.70053e-07 -4.66813 2.78915 -0.227709 2.63606e-06 -63.5368 4.55547 7.94741 -0.406307 -0 -0 16.0563 8.40199e-06 3.56714 18.1432 1.11209 -1.33339e-06 -79.2966 
105.74 86.081 14.97 -132.175 -85.9384 154.043 0 -0 0 6.39544 -12.9861 -11.4971 26.6683 -10.8761 -7.10506e-05 41.4226 1.11969 -15.4452 -0 51.4624 -0 -3.25203 4.06826 -0.115502 -24.1047 10.7983 -2.3049e-05 -38.8106 -7.06387 8.43495 -3.31577e-06 -85.2937 3.05412e-06 11.3478 -2.23273 -0.221907 9.23104 9.24188 -3.75655 2.65744 -1.45447 -38.4296 -0 -0 17.9043 -1.7633e-06 -4.10273 3.38303 -0.242505 4.2196e-06 -64.4239 4.60934 7.84202 0.267495 -0 -0 16.5667 5.56018e-07 3.71594 18.6837 1.19191 4.12507e-06 -80.6809 
104.47 85.809 14.799 -133.993 -85.9828 155.632 0 -0 0 6.57904 -13.1078 -11.3798 26.6838 -10.7924 -4.31923e-05 41.2689 1.25421 -16.5686 -0 50.6781 -0 -3.71364 3.9707 -0.128797 -24.0767 10.7016 -6.339e-05 -38.6181 -6.61472 8.5054 0 -85.7707 0 11.0778 -2.06853 -0.200603 8.74655 9.09823 -3.87779 2.55417 -1.26426 -38.5686 -0 -0 19.3456 2.16376e-06 -3.65031 3.80937 -0.242793 -4.21571e-06 -64.686 4.64435 7.67293 0.916195 -0 -0 17.189 -9.01726e-06 3.86389 19.246 1.27538 -1.93717e-06 -81.8975 
103.18 85.525 14.628 -136.002 -86.02 157.395 0 -0 0 6.74348 -13.1983 -11.2811 26.7242 -10.6893 4.57596e-05 41.0941 1.39623 -17.6792 -0 49.8711 -0 -4.23709 3.90085 -0.144397 -24.0719 10.6183 2.01022e-05 -38.4394 -6.16245 8.61898 8.27223e-07 -86.1219 -1.42656e-06 10.781 -1.93647 -0.182694 8.24723 8.91758 -3.92941 2.41208 -1.058 -38.7278 -0 -0 21.2199 7.55265e-06 -3.33096 4.0486 -0.235399 5.85838e-06 -64.2606 4.66596 7.43729 1.51408 -0 -0 17.9462 -1.25312e-05 3.98668 19.8473 1.35549 1.72861e-06 -82.8292 
101.88 85.228 14.458 -138.284 -86.0609 159.374 0 -0 0 6.86888 -13.2634 -11.1381 26.7931 -10.554 2.64304e-05 40.9073 1.54424 -18.8022 -0 49.0475 -0 -4.80372 3.86249 -0.162102 -24.0722 10.5341 6.60769e-05 -38.301 -5.69762 8.76262 2.30244e-06 -86.3612 -2.45345e-06 10.4559 -1.85069 -0.1693 7.72903 8.70646 -3.91342 2.24512 -0.868281 -38.8312 -0 -0 23.4306 -3.34677e-07 -3.0997 4.0401 -0.218592 2.93394e-06 -62.7563 4.67208 7.14557 2.12352 -0 -0 18.8166 -7.0994e-06 4.06688 20.5266 1.4282 -6.56518e-06 -83.357 
100.56 84.929 14.285 -140.344 -86.087 161.103 0 -0 0 6.99788 -13.3167 -11.0003 26.8874 -10.4053 -8.28411e-05 40.7061 1.71923 -19.906 -0 48.1866 -0 -5.4227 3.86317 -0.183003 -24.0887 10.4699 8.23752e-06 -38.2028 -5.23883 8.95304 3.73438e-06 -86.4568 -4.28483e-06 10.1087 -1.81329 -0.160397 7.18204 8.47428 -3.8147 2.06945 -0.658278 -38.8623 -0 -0 25.7868 8.77729e-07 -3.01336 3.81163 -0.200504 -1.44887e-06 -60.4189 4.69125 6.81634 2.66795 -0 -0 19.8477 2.75777e-05 4.08154 21.2695 1.48269 9.94196e-06 -83.3562 
99.225 84.631 14.104 -141.921 -86.1112 162.322 0 -0 0 7.15072 -13.3649 -10.8602 27.0034 -10.2394 6.43329e-05 40.4893 1.92293 -20.9982 -0 47.284 -0 -6.08263 3.9066 -0.207602 -24.1186 10.4202 9.41898e-06 -38.1582 -4.78013 9.18359 -4.27247e-06 -86.3709 4.01087e-06 9.74454 -1.82714 -0.155804 6.59737 8.23117 -3.63365 1.91343 -0.429497 -38.7785 -0 -0 28.1459 -1.94576e-07 -3.06541 3.34908 -0.1793 3.63141e-07 -57.2383 4.74614 6.47859 3.14005 -0 -0 21.0461 -9.02805e-07 4.02389 22.0665 1.51379 2.55883e-07 -82.7195 
97.89 84.344 13.914 -142.693 -86.1457 162.724 0 -0 0 7.34925 -13.4149 -10.728 27.141 -10.0625 1.92632e-05 40.2642 2.16574 -22.0728 -0 46.335 -0 -6.77875 3.99617 -0.236795 -24.1661 10.3876 -5.25723e-05 -38.1727 -4.32654 9.45415 3.75697e-06 -86.1416 -4.01855e-06 9.37145 -1.88852 -0.154803 5.96916 7.98744 -3.37275 1.80384 -0.182175 -38.5624 -0 -0 30.3764 8.73129e-07 -3.25389 2.66325 -0.151399 2.91888e-07 -53.4641 4.85784 6.15948 3.51204 -0 -0 22.4254 -5.38696e-07 3.90821 22.8912 1.5222 5.17839e-06 -81.3679 
96.554 84.074 13.713 -142.47 -86.2047 162.132 0 -0 0 7.60579 -13.4705 -10.605 27.2973 -9.88061 4.00248e-06 40.0364 2.45985 -23.13 -0 45.3333 -0 -7.50673 4.13314 -0.271299 -24.2349 10.3732 6.01503e-05 -38.2486 -3.88565 9.76196 0 -85.7286 0 8.99943 -1.989 -0.156498 5.29606 7.7524 -3.04118 1.76283 0.0766143 -38.1977 -0 -0 32.3836 -1.07866e-06 -3.56723 1.7765 -0.1107 -5.86239e-07 -49.4459 5.04062 5.88419 3.76776 -0 -0 23.9832 7.07635e-07 3.76961 23.7011 1.51709 1.35383e-05 -79.2659 
95.226 83.829 13.503 -141.161 -86.2667 160.469 0 -0 0 7.92413 -13.5381 -10.5184 27.4706 -9.69938 -5.32743e-05 39.8128 2.80361 -24.1613 -0 44.2848 -0 -8.2619 4.31243 -0.311602 -24.3258 10.3754 5.09295e-05 -38.3856 -3.45676 10.1071 2.94571e-06 -85.1334 -3.20735e-06 8.63997 -2.1161 -0.159899 4.58449 7.53289 -2.64504 1.7972 0.341709 -37.7043 -0 -0 34.1012 -3.41111e-07 -3.99819 0.734401 -0.0513009 -5.40677e-07 -45.5675 5.29572 5.66543 3.86706 -0 -0 25.7236 1.15542e-05 3.66512 24.4424 1.5182 2.08797e-06 -76.433 
93.909 83.614 13.286 -138.704 -86.3416 157.68 0 -0 0 8.29492 -13.6172 -10.4665 27.6581 -9.52476 2.827e-05 39.6107 3.20042 -25.166 -0 43.191 -0 -9.04001 4.52595 -0.357998 -24.437 10.3914 2.59092e-05 -38.5801 -3.04658 10.4864 -3.20583e-06 -84.3391 2.90362e-06 8.30391 -2.2551 -0.163703 3.84507 7.33312 -2.20039 1.90717 0.605416 -37.0862 -0 -0 35.4992 3.28796e-07 -4.52997 -0.410608 0.0324996 -5.03103e-07 -42.1633 5.61942 5.51427 3.80318 -0 -0 27.6276 -9.41894e-06 3.66066 25.0623 1.55244 3.07325e-05 -72.9735 
92.609 83.432 13.066 -135.133 -86.4555 153.817 0 -0 0 8.69714 -13.7089 -10.4583 27.8562 -9.36227 1.17231e-05 39.4437 3.6443 -26.1335 -0 42.0641 -0 -9.83694 4.75841 -0.40969 -24.5613 10.4176 5.38758e-06 -38.8275 -2.65807 10.8999 3.55454e-07 -83.3461 -9.55364e-07 8.00099 -2.38885 -0.167096 3.09566 7.15378 -1.72212 2.07783 0.859916 -36.363 -0 -0 36.5722 2.13354e-06 -5.14443 -1.59733 0.143798 -1.58152e-06 -39.4613 5.99284 5.42917 3.56249 -0 -0 29.6748 -6.50451e-06 3.82872 25.5147 1.65123 1.82148e-05 -69.0566 
91.329 83.288 12.848 -130.599 -86.5757 149.029 0 -0 0 9.09738 -13.8129 -10.4986 28.0663 -9.21605 -9.17226e-05 39.3302 4.12549 -27.0572 -0 40.9206 -0 -10.6475 4.99006 -0.465299 -24.6901 10.4476 -5.67482e-05 -39.1197 -2.2923 11.3464 1.45456e-06 -82.1579 -1.66852e-06 7.73933 -2.50197 -0.1693 2.35847 6.99206 -1.22595 2.28304 1.09399 -35.5578 -0 -0 37.3383 4.33004e-06 -5.81696 -2.76641 0.281699 4.04508e-08 -37.564 6.38348 5.39846 3.13983 -0 -0 31.8345 -2.54795e-05 4.23667 25.7662 1.84454 2.69279e-05 -64.9107 
